<svg xmlns="http://www.w3.org/2000/svg" xmlns:xlink="http://www.w3.org/1999/xlink" height="96" viewBox="0 0 96.000003 96.000003" fill="white" width="96"><clipPath id="a"><path d="m0 1000h1000v-1000h-1000z"/></clipPath><path d="m0 0v266.101h-61.5v68.199h146.4v-334.199h-84.9z" transform="matrix(.097959184218 0 0 -.097959184218 30.367327240817 64.349436791265)"/><g clip-path="url(#a)" transform="matrix(.097959184218 0 0 -.097959184218 -.97961197551 96.979601308845)"><g transform="translate(556.5 576.2998)"><path d="m0 0c0-23.8 17.2-37.2 48.2-37.2s48.2 13.3 48.2 37.2c0 24.8-17.2 38.6-48.2 38.6s-48.2-13.8-48.2-38.6m-8.6-141.6c0-28.1 20-43.9 56.7-43.9s57.2 15.3 57.2 43.9c0 27.701-20.5 43.4-57.2 43.4s-56.7-15.8-56.7-43.4m176 146.4c0-29.1-15.7-54.8-42-69.1 36.7-15.3 59.6-47.2 59.6-84.4 0-60.1-53.4-98.199-136.8-98.199s-136.8 37.699-136.8 96.799c0 38.1 24.8 70.6 63.4 85.8-28.1 15.7-46.3 42.4-46.3 71.5 0 53.4 46.7 87.3 119.2 87.3 73.4-.1 119.7-34.9 119.7-89.7"/></g><g transform="translate(882.7002 629.6001)"><path d="m0 0c14.1-41.6 21.3-85.2 21.3-129.6 0-222.8-181.2-404-404-404s-404 181.2-404 404 181.2 404 404 404c44.4 0 88-7.2 129.599-21.3v89.9c-42 11.6-85.5 17.4-129.599 17.4-270.2 0-490-219.8-490-490s219.8-490 490-490 490 219.8 490 490c0 44.1-5.8 87.6-17.401 129.6z"/></g><g transform="translate(858.2998 858.6001)"><path d="m0 0v93.9h-67.6v-93.9h-93.4v-67.6h93.4v-94h67.6v94h93.9v67.6z"/></g></g></svg>