<?xml version="1.0" encoding="UTF-8"?>
<svg xmlns="http://www.w3.org/2000/svg" xmlns:xlink="http://www.w3.org/1999/xlink" width="1018px" height="400px" viewBox="0 0 1018 400" version="1.1">
<g id="surface1">
<path style=" stroke:none;fill-rule:nonzero;fill:rgb(100%,100%,100%);fill-opacity:1;" d="M 195.164062 392.304688 L 28.375 283.707031 C 28.375 283.707031 7.457031 271.675781 2.667969 249.269531 C -4.058594 217.808594 18.113281 190.832031 18.113281 190.832031 L 234.578125 331.832031 C 251.277344 342.714844 255.835938 364.984375 245.101562 381.78125 C 234.074219 399.035156 211.417969 402.84375 195.15625 392.304688 Z M 195.164062 392.304688 "/>
<path style=" stroke:none;fill-rule:nonzero;fill:rgb(100%,100%,100%);fill-opacity:1;" d="M 37.183594 167.558594 C 37.183594 167.558594 11.632812 152.132812 11.632812 116.445312 C 11.632812 80.878906 37.171875 65.640625 37.171875 65.640625 L 128.355469 5.953125 C 145.054688 -4.632812 167.160156 0.191406 177.933594 16.769531 C 188.710938 33.347656 184.144531 55.511719 167.695312 66.480469 L 90.84375 116.53125 L 221.78125 201.824219 C 221.78125 201.824219 245.351562 215.332031 249.996094 238.132812 C 256.476562 269.9375 234.585938 296.144531 234.585938 296.144531 Z M 36.699219 398.0625 C 45.257812 398.0625 51.351562 395.34375 57.296875 391.492188 L 101.808594 362.492188 L 57.296875 333.5 C 51.296875 329.632812 45 326.925781 36.699219 326.925781 C 23.871094 326.742188 11.941406 333.484375 5.476562 344.5625 C -0.992188 355.640625 -0.992188 369.347656 5.476562 380.425781 C 11.941406 391.507812 23.871094 398.246094 36.699219 398.0625 Z M 36.699219 398.0625 "/>
<path style=" stroke:none;fill-rule:nonzero;fill:rgb(100%,100%,100%);fill-opacity:1;" d="M 208.808594 80.96875 C 200.246094 80.96875 194.15625 83.683594 188.210938 87.535156 L 143.695312 116.53125 L 188.210938 145.527344 C 194.207031 149.394531 200.507812 152.101562 208.808594 152.101562 C 228.449219 152.101562 244.371094 136.179688 244.371094 116.535156 C 244.371094 96.890625 228.449219 80.96875 208.808594 80.96875 "/>
<path style=" stroke:none;fill-rule:nonzero;fill:rgb(100%,100%,100%);fill-opacity:1;" d="M 393.996094 285.164062 C 403.40625 285.164062 412.183594 282.609375 419.042969 276.707031 L 419.042969 289.949219 C 411.382812 295.214844 402.289062 297.449219 392.714844 297.449219 C 368.609375 297.449219 351.871094 280.691406 351.871094 256.597656 C 351.871094 232.65625 369.101562 215.90625 393.035156 215.90625 C 402.449219 215.90625 411.222656 218.621094 418.242188 223.882812 L 418.242188 238.402344 C 412.019531 231.707031 403.40625 228.191406 393.832031 228.191406 C 377.078125 228.191406 365.273438 239.84375 365.273438 256.59375 C 365.273438 273.347656 377.242188 285.164062 393.996094 285.164062 Z M 446.324219 296.015625 L 433.398438 296.015625 L 433.398438 192.40625 L 446.324219 200.394531 L 446.324219 230.75 C 452.226562 221.65625 461.640625 215.914062 473.605469 215.914062 C 493.390625 215.914062 503.921875 230.429688 503.921875 249.738281 L 503.921875 296.015625 L 490.839844 296.015625 L 490.839844 251.972656 C 490.839844 236.652344 484.140625 228.515625 470.414062 228.515625 C 455.898438 228.515625 446.3125 240.960938 446.3125 256.601562 L 446.324219 296.019531 Z M 584.171875 282.601562 C 577.636719 291.855469 567.582031 297.441406 555.296875 297.441406 C 532.324219 297.441406 515.890625 280.367188 515.890625 257.070312 C 515.890625 233.300781 532.324219 215.898438 555.296875 215.898438 C 567.582031 215.898438 577.636719 221.644531 584.171875 231.0625 L 584.171875 217.335938 L 597.257812 217.335938 L 597.257812 296.003906 L 584.171875 296.003906 Z M 529.289062 256.910156 C 529.289062 273.183594 540.621094 285.152344 556.574219 285.152344 C 572.6875 285.152344 584.171875 273.183594 584.171875 256.910156 C 584.171875 240.3125 572.6875 228.183594 556.574219 228.183594 C 540.621094 228.195312 529.289062 240.320312 529.289062 256.921875 Z M 630.285156 296.015625 L 617.359375 296.015625 L 617.359375 217.34375 L 630.285156 217.34375 L 630.285156 234.097656 C 636.503906 222.449219 646.558594 215.910156 659.003906 215.910156 L 659.003906 230.75 C 643.363281 228.515625 630.285156 239.046875 630.285156 258.511719 Z M 791.425781 261.707031 L 729.359375 261.707031 C 731.277344 275.910156 742.445312 285.324219 758.078125 285.324219 C 768.132812 285.324219 777.863281 282.449219 786.160156 276.546875 L 786.160156 288.992188 C 777.703125 294.738281 768.132812 297.449219 758.078125 297.449219 C 733.347656 297.449219 715.648438 281.496094 715.648438 257.386719 C 715.648438 233.765625 730.644531 215.898438 754.417969 215.898438 C 777.070312 215.898438 791.914062 232.652344 791.914062 255.152344 C 791.917969 257.34375 791.753906 259.539062 791.425781 261.707031 Z M 729.519531 251.183594 L 778.183594 251.183594 C 776.910156 237.773438 768.453125 227.882812 754.570312 227.882812 C 740.210938 227.875 731.59375 237.929688 729.519531 251.175781 Z M 819.027344 296.015625 L 806.101562 296.015625 L 806.101562 217.34375 L 819.027344 217.34375 L 819.027344 234.097656 C 825.25 222.449219 835.296875 215.910156 847.742188 215.910156 L 847.742188 230.75 C 832.113281 228.515625 819.027344 239.046875 819.027344 258.511719 Z M 924.488281 261.707031 L 862.429688 261.707031 C 864.335938 275.910156 875.507812 285.324219 891.144531 285.324219 C 901.195312 285.324219 910.929688 282.449219 919.226562 276.546875 L 919.226562 288.992188 C 910.769531 294.738281 901.195312 297.449219 891.144531 297.449219 C 866.414062 297.449219 848.710938 281.496094 848.710938 257.386719 C 848.710938 233.765625 863.703125 215.898438 887.476562 215.898438 C 910.132812 215.898438 924.96875 232.652344 924.96875 255.152344 C 924.976562 257.347656 924.816406 259.535156 924.488281 261.707031 Z M 862.585938 251.183594 L 911.246094 251.183594 C 909.96875 237.773438 901.511719 227.882812 887.632812 227.882812 C 873.277344 227.875 864.667969 237.929688 862.585938 251.175781 Z M 1002.066406 282.503906 C 995.691406 291.921875 985.480469 297.664062 973.195312 297.664062 C 950.214844 297.664062 933.78125 280.589844 933.78125 257.289062 C 933.78125 233.523438 950.214844 216.121094 973.195312 216.121094 C 985.480469 216.121094 995.691406 222.027344 1002.066406 231.601562 L 1002.066406 192.425781 L 1015.152344 200.417969 L 1015.152344 296.011719 L 1002.066406 296.011719 Z M 947.1875 257.132812 C 947.1875 273.410156 958.511719 285.382812 974.46875 285.382812 C 990.582031 285.382812 1002.066406 273.410156 1002.066406 257.132812 C 1002.066406 240.539062 990.582031 228.410156 974.46875 228.410156 C 958.511719 228.410156 947.1875 240.535156 947.1875 257.136719 Z M 681.582031 269.867188 C 681.582031 280.875 688.285156 285.183594 696.742188 285.183594 C 703.308594 285.25 709.730469 283.238281 715.089844 279.441406 L 715.089844 292.046875 C 709.660156 296.035156 702.164062 297.632812 695.625 297.632812 C 678.871094 297.632812 668.660156 290.132812 668.660156 268.90625 L 668.660156 192.390625 L 681.582031 200.378906 Z M 702.472656 216.316406 C 697.851562 213.316406 691.667969 214.632812 688.667969 219.257812 C 685.667969 223.882812 686.988281 230.066406 691.609375 233.066406 L 691.886719 233.238281 C 695.164062 235.339844 699.363281 235.339844 702.640625 233.238281 L 715.492188 224.996094 Z M 378.835938 171.714844 C 388.085938 171.714844 394.792969 167.726562 394.792969 160.546875 C 394.792969 156.238281 392.558594 152.886719 386.644531 150.492188 L 367.972656 142.992188 C 358.402344 138.84375 353.136719 133.417969 353.136719 123.203125 C 353.136719 109.480469 364.144531 100.863281 380.097656 100.863281 C 389.347656 100.863281 397.964844 103.414062 404.03125 108.042969 L 404.03125 121.625 C 396.851562 115.238281 388.074219 111.570312 380.265625 111.570312 C 371.964844 111.570312 366.0625 115.398438 366.0625 121.785156 C 366.0625 126.570312 368.296875 129.445312 374.523438 131.835938 L 393.191406 139.339844 C 403.242188 143.648438 407.871094 149.710938 407.871094 158.167969 C 407.871094 173.167969 395.742188 182.421875 378.679688 182.421875 C 368.300781 182.421875 358.886719 179.550781 352.03125 174.449219 L 352.03125 160.386719 C 360.324219 168.203125 369.582031 171.714844 378.835938 171.714844 Z M 432.445312 154.640625 C 432.445312 165.652344 439.144531 169.960938 447.605469 169.960938 C 454.164062 170.019531 460.578125 168.007812 465.933594 164.214844 L 465.933594 176.820312 C 460.503906 180.8125 453.007812 182.40625 446.464844 182.40625 C 429.710938 182.40625 419.507812 174.910156 419.507812 153.683594 L 419.507812 85.097656 L 432.429688 77.097656 Z M 538.222656 167.5625 C 531.683594 176.820312 521.628906 182.40625 509.34375 182.40625 C 486.371094 182.40625 469.9375 165.335938 469.9375 142.03125 C 469.9375 118.265625 486.371094 100.863281 509.34375 100.863281 C 521.628906 100.863281 531.683594 106.605469 538.222656 116.027344 L 538.222656 102.308594 L 551.308594 102.308594 L 551.308594 180.972656 L 538.222656 180.972656 Z M 483.339844 141.875 C 483.339844 158.152344 494.667969 170.121094 510.621094 170.121094 C 526.738281 170.121094 538.222656 158.152344 538.222656 141.875 C 538.222656 125.28125 526.738281 113.148438 510.621094 113.148438 C 494.667969 113.148438 483.339844 125.28125 483.339844 141.875 Z M 584.332031 180.972656 L 571.40625 180.972656 L 571.40625 102.308594 L 584.332031 102.308594 L 584.332031 115.710938 C 590.238281 106.617188 599.648438 100.871094 611.613281 100.871094 C 631.398438 100.871094 641.929688 115.394531 641.929688 134.707031 L 641.929688 180.980469 L 628.847656 180.980469 L 628.847656 136.941406 C 628.847656 121.621094 622.148438 113.484375 608.425781 113.484375 C 593.90625 113.484375 584.320312 125.929688 584.320312 141.570312 Z M 722.183594 167.246094 C 715.804688 176.664062 705.589844 182.410156 693.304688 182.410156 C 670.332031 182.410156 653.898438 165.335938 653.898438 142.03125 C 653.898438 118.265625 670.332031 100.863281 693.304688 100.863281 C 705.589844 100.863281 715.804688 106.765625 722.183594 116.34375 L 722.183594 85.085938 L 735.269531 77.097656 L 735.269531 180.972656 L 722.183594 180.972656 Z M 667.300781 141.875 C 667.300781 158.152344 678.628906 170.121094 694.582031 170.121094 C 710.699219 170.121094 722.183594 158.152344 722.183594 141.875 C 722.183594 125.28125 710.699219 113.148438 694.582031 113.148438 C 678.640625 113.148438 667.300781 125.28125 667.300781 141.875 Z M 961.511719 167.246094 C 955.132812 176.664062 944.917969 182.410156 932.632812 182.410156 C 909.65625 182.410156 893.222656 165.335938 893.222656 142.03125 C 893.222656 118.265625 909.65625 100.863281 932.632812 100.863281 C 944.917969 100.863281 955.132812 106.765625 961.511719 116.34375 L 961.511719 85.085938 L 974.59375 77.097656 L 974.59375 180.972656 L 961.511719 180.972656 Z M 906.628906 141.875 C 906.628906 158.152344 917.953125 170.121094 933.910156 170.121094 C 950.023438 170.121094 961.511719 158.152344 961.511719 141.875 C 961.511719 125.28125 950.023438 113.148438 933.910156 113.148438 C 917.964844 113.148438 906.628906 125.28125 906.628906 141.875 Z M 817.597656 167.5625 C 811.054688 176.820312 801.003906 182.40625 788.71875 182.40625 C 765.742188 182.40625 749.308594 165.335938 749.308594 142.03125 C 749.308594 118.265625 765.742188 100.863281 788.71875 100.863281 C 801.003906 100.863281 811.054688 106.605469 817.597656 116.027344 L 817.597656 102.308594 L 830.679688 102.308594 L 830.679688 180.972656 L 817.597656 180.972656 Z M 762.710938 141.875 C 762.710938 158.152344 774.039062 170.121094 789.992188 170.121094 C 806.105469 170.121094 817.597656 158.152344 817.597656 141.875 C 817.597656 125.28125 806.105469 113.148438 789.992188 113.148438 C 774.027344 113.148438 762.710938 125.28125 762.710938 141.875 Z M 863.703125 180.972656 L 850.777344 180.972656 L 850.777344 102.308594 L 863.703125 102.308594 L 863.703125 119.066406 C 869.925781 107.414062 879.976562 100.871094 892.421875 100.871094 L 892.421875 115.710938 C 876.785156 113.480469 863.703125 124.011719 863.703125 143.480469 Z M 450.660156 119.066406 C 453.460938 120.890625 456.992188 121.195312 460.066406 119.875 C 463.136719 118.550781 465.34375 115.777344 465.941406 112.488281 C 466.417969 109.871094 465.828125 107.175781 464.304688 104.996094 C 463.554688 103.917969 462.597656 103 461.488281 102.289062 L 461.210938 102.121094 C 457.925781 100.03125 453.726562 100.046875 450.457031 102.15625 L 437.613281 110.429688 Z M 450.660156 119.066406 "/>
</g>
</svg>
